<svg width="150" height="26" viewBox="0 0 150 26" fill="none" xmlns="http://www.w3.org/2000/svg">
<path d="M138.902 15.5626C138.927 16.7022 139.402 17.8185 140.226 18.679C141.101 19.4698 142.276 19.9116 143.476 19.8651C144.1 19.8651 144.725 19.7488 145.3 19.5395C145.85 19.3535 146.35 19.0976 146.8 18.772C147.375 18.3302 147.825 17.7952 148.2 17.2138L149.524 17.8883C149.149 18.586 148.649 19.2139 148.025 19.7256C147.475 20.1907 146.8 20.5396 146.1 20.7722C145.3 21.028 144.475 21.1675 143.651 21.1443C141.626 21.1443 140.076 20.5861 139.002 19.4C137.927 18.3302 137.302 16.9347 137.302 15.4695C137.302 14.1206 137.802 12.795 138.752 11.7716C139.926 10.3995 141.726 9.63197 143.626 9.67849C145.6 9.63197 147.475 10.4227 148.649 11.8182C149.549 12.888 150.024 14.2136 149.999 15.5626H138.902ZM147.3 12.4926C146.875 12.0042 146.325 11.6321 145.7 11.3995C145.05 11.1204 144.325 10.9809 143.626 10.9809C142.501 10.9809 141.401 11.353 140.526 12.0275C139.826 12.6554 139.327 13.4462 139.077 14.3067H148.225C148.025 13.6322 147.725 13.0275 147.3 12.4926ZM131.803 24.284C130.654 24.8422 129.404 25.1213 128.104 25.098C127.129 25.1213 126.18 24.9585 125.28 24.6794C124.555 24.4235 123.855 24.0747 123.255 23.6328C122.631 23.0979 122.131 22.4234 121.806 21.6792H123.505C123.93 22.3537 124.555 22.9118 125.33 23.2839C127.079 24.0049 129.054 23.9817 130.779 23.2374C131.428 22.9351 132.003 22.4932 132.378 21.9118C132.753 21.0978 132.903 20.2373 132.853 19.3535V18.7953C132.278 19.4465 131.528 19.9814 130.654 20.307C129.804 20.6791 128.879 20.8885 127.929 20.8652C126.83 20.8885 125.73 20.6094 124.78 20.0977C123.855 19.6093 123.03 18.9348 122.431 18.0976C121.881 17.2836 121.606 16.33 121.631 15.3532C121.606 14.3532 121.906 13.3996 122.481 12.5624C123.055 11.7019 123.88 10.9809 124.83 10.4692C125.78 9.95757 126.88 9.70175 127.979 9.70175C128.879 9.70175 129.754 9.8878 130.554 10.2134C131.453 10.632 132.253 11.1902 132.903 11.8647V9.91106H134.453V18.5395C134.503 19.6791 134.353 20.8187 133.978 21.9118C133.603 22.9583 132.803 23.7956 131.803 24.284ZM132.378 13.0508C131.978 12.3996 131.378 11.8879 130.679 11.5391C129.929 11.2367 129.104 11.0507 128.279 11.0274C127.404 11.0274 126.555 11.2367 125.755 11.5856C125.005 11.9577 124.38 12.4926 123.93 13.1438C123.505 13.8183 123.28 14.5858 123.28 15.3765C123.255 16.4928 123.73 17.5627 124.605 18.3069C125.555 19.0976 126.83 19.5395 128.129 19.493C129.429 19.5395 130.679 19.1442 131.653 18.3534C132.553 17.5394 133.028 16.4231 132.978 15.2835C133.028 14.4927 132.803 13.7252 132.378 13.0508ZM117.207 19.0279C116.582 19.7023 115.832 20.2605 114.957 20.6326C114.133 21.0047 113.208 21.2141 112.283 21.1908C110.633 21.2141 109.034 20.6094 107.859 19.5395C106.634 18.493 105.959 17.0045 105.984 15.4695C105.959 13.9578 106.659 12.5159 107.859 11.4925C109.034 10.4227 110.633 9.81804 112.283 9.84129C113.233 9.81804 114.158 10.0273 115.007 10.3995C115.882 10.8181 116.607 11.3995 117.207 12.0972V10.0971H118.756V20.8419H117.207V19.0279ZM115.982 12.2833C115.032 11.446 113.758 11.0042 112.458 11.0042C111.608 11.0042 110.758 11.1902 110.009 11.5623C109.259 11.9344 108.659 12.4926 108.234 13.1671C107.809 13.8415 107.584 14.609 107.584 15.3998C107.584 16.1905 107.809 16.958 108.284 17.6324C108.684 18.3069 109.309 18.8883 110.059 19.2837C110.783 19.6791 111.608 19.8884 112.458 19.8419C113.333 19.8419 114.183 19.6326 114.982 19.2837C115.732 18.9348 116.332 18.3767 116.757 17.7255C117.207 17.0278 117.432 16.237 117.407 15.4463C117.382 14.2834 116.882 13.1438 115.982 12.2833ZM102.285 20.8187H100.736V11.1437H98.5362V9.95758H100.736V5.93408H102.285V9.95758H104.81V11.1437H102.285C102.285 11.1669 102.285 20.8187 102.285 20.8187ZM93.4874 14.6323C94.4122 15.0044 95.212 15.5393 95.8869 16.1905C96.3118 16.6789 96.5367 17.2836 96.5367 17.8883C96.5367 18.7255 96.1868 19.5395 95.5119 20.1675C94.8121 20.7954 93.8623 21.121 92.8876 21.0745C92.1877 21.0745 91.4879 20.935 90.863 20.6559C90.2632 20.4001 89.7133 20.0279 89.2634 19.5628L90.2382 18.5627C90.863 19.2837 91.7878 19.7023 92.8126 19.7488C93.4124 19.7721 93.9873 19.5628 94.4122 19.1907C94.8121 18.8883 95.087 18.4464 95.112 17.958C95.112 17.5627 94.9621 17.1906 94.6871 16.9115C94.1123 16.3998 93.4124 16.0044 92.6626 15.7719C91.5879 15.2602 90.7881 14.7718 90.4131 14.2602C90.0132 13.7718 89.7883 13.1671 89.8133 12.5624C89.8133 11.7949 90.1382 11.0507 90.7131 10.4692C91.3629 9.91106 92.2377 9.60872 93.1125 9.65523C94.4372 9.74826 95.6619 10.2832 96.5367 11.1669L95.5119 12.074C94.8621 11.4228 93.9623 11.0274 93.0125 11.0042C92.5126 11.0042 92.0378 11.167 91.6629 11.4693C91.3129 11.7251 91.113 12.0972 91.063 12.5159C91.063 12.888 91.238 13.2601 91.5379 13.5159C92.1127 13.9811 92.7626 14.3764 93.4874 14.6323ZM79.0408 15.6788C79.0908 14.8416 79.0158 13.9811 78.8159 13.1671C78.6659 12.5391 78.316 11.981 77.7911 11.5623C77.2163 11.1437 76.4914 10.9576 75.7666 11.0042C74.8418 11.0042 73.942 11.2832 73.1922 11.8182C72.4424 12.3298 71.9175 13.074 71.6926 13.9113C71.5176 14.8881 71.4426 15.8649 71.4676 16.8417V20.8419H69.918L69.868 9.98083H71.4176V11.9344C71.9675 11.2367 72.6923 10.6785 73.4921 10.2832C74.267 9.91106 75.1418 9.70175 76.0165 9.72501C76.8913 9.72501 77.7411 9.95758 78.466 10.3995C79.1658 10.7948 79.7157 11.3763 80.0156 12.0507C80.3905 12.7717 80.5405 13.8415 80.5405 15.33V20.935H78.9908C79.0408 20.8884 79.0408 15.6788 79.0408 15.6788ZM56.0962 19.5163L56.0213 19.4465C53.6968 17.2603 53.6718 13.7485 55.9713 11.5391C57.121 10.3064 58.8206 9.63197 60.5702 9.67849C62.3448 9.63197 64.0694 10.3064 65.2691 11.5391C66.3938 12.5856 66.9937 14.0043 66.9687 15.4695C66.9937 16.958 66.3438 18.3999 65.1941 19.4465C62.7197 21.7025 58.6207 21.7257 56.0962 19.5163ZM64.0444 12.2833C63.0946 11.4693 61.8699 11.0274 60.5702 11.0042C59.2955 11.0042 58.0708 11.4693 57.196 12.2833C56.2962 13.0973 55.7963 14.2369 55.7963 15.3998C55.7963 16.1672 56.0213 16.9347 56.4462 17.6324C56.8461 18.3069 57.4709 18.8418 58.2207 19.1907C58.9456 19.5628 59.7704 19.7721 60.6202 19.7488C62.3448 19.7488 63.9194 18.9348 64.7942 17.6092C65.2191 16.9347 65.444 16.1672 65.444 15.3765C65.444 14.2369 64.9442 13.1206 64.0444 12.2833ZM49.9227 9.98083H51.4723V20.8885H49.9227V9.98083ZM45.1238 15.6788C45.1738 14.8416 45.0988 13.9811 44.8989 13.1671C44.7489 12.5391 44.399 11.981 43.8741 11.5623C43.2993 11.1437 42.5744 10.9576 41.8496 11.0042C40.9248 11.0042 40.025 11.2832 39.2752 11.8182C38.5254 12.3298 38.0005 13.074 37.7756 13.9113C37.6006 14.8881 37.5256 15.8649 37.5506 16.8417V20.8419H36.001L36.051 9.98083H37.6006V11.9344C38.1505 11.2367 38.8753 10.6785 39.6751 10.2832C40.4499 9.91106 41.3247 9.70175 42.1995 9.72501C43.0743 9.72501 43.9241 9.95758 44.649 10.3995C45.3488 10.7948 45.8987 11.3763 46.1986 12.0507C46.5735 12.7717 46.7235 13.8415 46.7235 15.33V20.935H45.0738C45.1238 20.8884 45.1238 15.6788 45.1238 15.6788ZM31.2271 9.98083H32.7768V20.8885H31.2271V9.98083ZM22.1293 21.0512C21.2045 21.0512 20.2797 20.8652 19.4549 20.4931C18.6051 20.0977 17.8553 19.5395 17.2054 18.8883V24.7724H15.6558L15.7058 9.98083H17.2554V11.9809C17.8303 11.26 18.5801 10.6785 19.4549 10.2832C20.2797 9.91106 21.2045 9.70175 22.1293 9.72501C23.7789 9.70175 25.3785 10.3064 26.5532 11.3763C27.7529 12.4228 28.4278 13.8648 28.4278 15.3532C28.4528 16.8882 27.7529 18.3767 26.5532 19.4232C25.4035 20.4698 23.8039 21.0745 22.1293 21.0512ZM26.2533 13.1671C25.8534 12.4926 25.2285 11.9344 24.4787 11.5623C23.6789 11.2367 22.8291 11.0507 21.9543 11.0274C20.6796 11.0041 19.4299 11.446 18.4801 12.26C17.5553 13.0973 17.0555 14.2369 17.0805 15.4463C17.0805 16.237 17.3054 17.0278 17.7303 17.7255C18.1552 18.3767 18.7551 18.9116 19.5049 19.2837C20.2797 19.6558 21.1295 19.8651 22.0293 19.8419C22.8791 19.8419 23.7039 19.6558 24.4287 19.2837C25.2035 18.9116 25.8034 18.3302 26.2033 17.6324C26.6532 16.958 26.8781 16.1905 26.9031 15.3998C26.8781 14.609 26.6532 13.8415 26.2533 13.1671ZM6.35799 21.1675C4.6334 21.2373 2.95879 20.6094 1.75907 19.4698C-0.565378 17.2836 -0.590372 13.7718 1.70909 11.5623C2.85881 10.3297 4.55841 9.65523 6.308 9.70175C8.08258 9.65523 9.80717 10.3297 11.0069 11.5623C12.1316 12.6322 12.7565 14.0276 12.7065 15.4928C12.7065 16.9812 12.0816 18.4232 10.9319 19.4698C9.75718 20.5861 8.08258 21.214 6.35799 21.1675ZM9.78218 12.2833C8.8324 11.4693 7.60769 11.0274 6.308 11.0042C5.0333 11.0042 3.80859 11.4693 2.9338 12.2833C2.03401 13.0973 1.53413 14.2369 1.53413 15.3998C1.53413 16.1672 1.75907 16.9347 2.18397 17.6324C2.58388 18.3069 3.20873 18.8418 3.95855 19.1907C4.68338 19.5628 5.50819 19.7721 6.35799 19.7488C8.08258 19.7488 9.65721 18.9348 10.532 17.6092C10.9569 16.9347 11.1818 16.1672 11.1818 15.3765C11.1818 14.2369 10.682 13.1206 9.78218 12.2833Z" fill="#050505"/>
<path d="M49.2717 0.584916C51.3712 0.282573 53.3458 1.56172 53.6957 3.42229L53.7207 3.51532C53.8206 4.23629 53.6957 4.95726 53.3458 5.60846C53.0958 5.95732 52.9708 6.37595 52.9708 6.79458C52.9459 7.35275 53.1708 7.91092 53.6207 8.3063L51.3212 7.30623C51.0463 7.39926 50.7464 7.49229 50.4714 7.53881C48.3719 7.84115 46.3974 6.56201 46.0475 4.70144C46.0475 4.67818 46.0475 4.63167 46.0225 4.60841C45.6476 2.74784 47.0222 0.933774 49.1467 0.608174L49.2717 0.584916Z" fill="#31AEBE"/>
<path d="M32.7778 2.28273C31.1282 2.05016 29.5786 3.05021 29.3036 4.51541V4.56193C29.2287 5.1201 29.3286 5.67827 29.5786 6.16667C29.7535 6.44576 29.8535 6.7481 29.8535 7.0737C29.8785 7.51559 29.7036 7.93422 29.3786 8.25982L31.1532 7.49234C31.4032 7.58536 31.6531 7.65513 31.903 7.67839C33.5527 7.91096 35.1023 6.9109 35.3772 5.4457V5.39919C35.6772 3.95725 34.6024 2.56182 32.9778 2.28273H32.7778Z" fill="#F46368"/>
</svg>
